<mxfile host="app.diagrams.net" modified="2021-09-05T13:44:29.134Z" agent="5.0 (Windows NT 10.0; Win64; x64) AppleWebKit/537.36 (KHTML, like Gecko) Chrome/93.0.4577.63 Safari/537.36" etag="HtRkk2XbJGNN2LFESrw6" version="15.0.6" type="github">
  <diagram id="kgpKYQtTHZ0yAKxKKP6v" name="Page-1">
    <mxGraphModel dx="1422" dy="737" grid="1" gridSize="10" guides="1" tooltips="1" connect="1" arrows="1" fold="1" page="1" pageScale="1" pageWidth="850" pageHeight="1100" math="0" shadow="0">
      <root>
        <mxCell id="0" />
        <mxCell id="1" parent="0" />
        <mxCell id="zdOm7Ws3kbpws4WN7t2Z-17" value="" style="shape=umlLifeline;perimeter=lifelinePerimeter;container=1;collapsible=0;recursiveResize=0;rounded=0;shadow=0;strokeWidth=1;fontSize=13;" parent="1" vertex="1">
          <mxGeometry x="30" y="190" width="100" height="620" as="geometry" />
        </mxCell>
        <mxCell id="3nuBFxr9cyL0pnOWT2aG-1" value=":DvdDisk" style="shape=umlLifeline;perimeter=lifelinePerimeter;container=1;collapsible=0;recursiveResize=0;rounded=0;shadow=0;strokeWidth=1;fontSize=13;" parent="1" vertex="1">
          <mxGeometry x="205" y="190" width="100" height="630" as="geometry" />
        </mxCell>
        <mxCell id="3nuBFxr9cyL0pnOWT2aG-5" value=":OpticalDiscDrive" style="shape=umlLifeline;perimeter=lifelinePerimeter;container=1;collapsible=0;recursiveResize=0;rounded=0;shadow=0;strokeWidth=1;fontSize=13;" parent="1" vertex="1">
          <mxGeometry x="389" y="190" width="100" height="630" as="geometry" />
        </mxCell>
        <mxCell id="3nuBFxr9cyL0pnOWT2aG-6" value="" style="points=[];perimeter=orthogonalPerimeter;rounded=0;shadow=0;strokeWidth=1;fontSize=13;" parent="3nuBFxr9cyL0pnOWT2aG-5" vertex="1">
          <mxGeometry x="45" y="110" width="10" height="40" as="geometry" />
        </mxCell>
        <mxCell id="zdOm7Ws3kbpws4WN7t2Z-5" value="Actor" style="shape=umlActor;verticalLabelPosition=bottom;verticalAlign=top;html=1;outlineConnect=0;fontSize=13;" parent="1" vertex="1">
          <mxGeometry x="60" y="130" width="30" height="60" as="geometry" />
        </mxCell>
        <mxCell id="zdOm7Ws3kbpws4WN7t2Z-8" value="" style="points=[];perimeter=orthogonalPerimeter;rounded=0;shadow=0;strokeWidth=1;fontSize=13;" parent="1" vertex="1">
          <mxGeometry x="73" y="260" width="10" height="560" as="geometry" />
        </mxCell>
        <mxCell id="3nuBFxr9cyL0pnOWT2aG-2" value="" style="points=[];perimeter=orthogonalPerimeter;rounded=0;shadow=0;strokeWidth=1;fontSize=13;" parent="1" vertex="1">
          <mxGeometry x="252" y="280" width="10" height="490" as="geometry" />
        </mxCell>
        <mxCell id="zdOm7Ws3kbpws4WN7t2Z-21" value="1. Takes The Disk ()" style="verticalAlign=bottom;endArrow=open;shadow=0;strokeWidth=1;endFill=0;fontSize=13;" parent="1" source="zdOm7Ws3kbpws4WN7t2Z-17" edge="1">
          <mxGeometry relative="1" as="geometry">
            <mxPoint x="130" y="280" as="sourcePoint" />
            <mxPoint x="250" y="280" as="targetPoint" />
          </mxGeometry>
        </mxCell>
        <mxCell id="zdOm7Ws3kbpws4WN7t2Z-22" value="2. Input Disk in Drive ()" style="verticalAlign=bottom;endArrow=openThin;shadow=0;strokeWidth=1;endFill=0;fontSize=13;" parent="1" edge="1">
          <mxGeometry relative="1" as="geometry">
            <mxPoint x="260" y="300" as="sourcePoint" />
            <mxPoint x="435" y="300" as="targetPoint" />
          </mxGeometry>
        </mxCell>
        <mxCell id="zdOm7Ws3kbpws4WN7t2Z-23" value="3. Add Recoder Info ()" style="verticalAlign=bottom;endArrow=openThin;shadow=0;strokeWidth=1;exitX=0.9;exitY=0.267;exitDx=0;exitDy=0;exitPerimeter=0;endFill=0;fontSize=13;" parent="1" edge="1">
          <mxGeometry x="-0.0844" relative="1" as="geometry">
            <mxPoint x="84" y="321.0999999999999" as="sourcePoint" />
            <mxPoint x="250" y="321" as="targetPoint" />
            <Array as="points">
              <mxPoint x="195" y="320.5" />
            </Array>
            <mxPoint as="offset" />
          </mxGeometry>
        </mxCell>
        <mxCell id="zdOm7Ws3kbpws4WN7t2Z-27" value="" style="shape=umlLifeline;perimeter=lifelinePerimeter;container=1;collapsible=0;recursiveResize=0;rounded=0;shadow=0;strokeWidth=1;fontSize=13;" parent="1" vertex="1">
          <mxGeometry x="550" y="190" width="100" height="610" as="geometry" />
        </mxCell>
        <mxCell id="zdOm7Ws3kbpws4WN7t2Z-28" value="Actor 2" style="shape=umlActor;verticalLabelPosition=bottom;verticalAlign=top;html=1;outlineConnect=0;fontSize=13;" parent="1" vertex="1">
          <mxGeometry x="585" y="130" width="30" height="60" as="geometry" />
        </mxCell>
        <mxCell id="zdOm7Ws3kbpws4WN7t2Z-30" value="5. failed no free space ()" style="verticalAlign=bottom;endArrow=openThin;shadow=0;strokeWidth=1;exitX=0.1;exitY=0.354;exitDx=0;exitDy=0;exitPerimeter=0;entryX=0.5;entryY=0.4;entryDx=0;entryDy=0;entryPerimeter=0;endFill=0;fontSize=13;" parent="1" edge="1">
          <mxGeometry relative="1" as="geometry">
            <mxPoint x="248" y="364.1199999999999" as="sourcePoint" />
            <mxPoint x="82" y="365" as="targetPoint" />
            <Array as="points">
              <mxPoint x="197" y="365" />
            </Array>
          </mxGeometry>
        </mxCell>
        <mxCell id="zdOm7Ws3kbpws4WN7t2Z-32" value="6. ReAdd Recoder Info ()" style="verticalAlign=bottom;endArrow=openThin;shadow=0;strokeWidth=1;exitX=0.9;exitY=0.267;exitDx=0;exitDy=0;exitPerimeter=0;endFill=0;fontSize=13;" parent="1" edge="1">
          <mxGeometry relative="1" as="geometry">
            <mxPoint x="85" y="403.0999999999999" as="sourcePoint" />
            <mxPoint x="251" y="403" as="targetPoint" />
            <Array as="points">
              <mxPoint x="196" y="402.5" />
            </Array>
          </mxGeometry>
        </mxCell>
        <mxCell id="zdOm7Ws3kbpws4WN7t2Z-33" value="19. Completed successfully ()" style="verticalAlign=bottom;endArrow=openThin;shadow=0;strokeWidth=1;entryX=0.5;entryY=0.4;entryDx=0;entryDy=0;entryPerimeter=0;endFill=0;fontSize=13;" parent="1" edge="1">
          <mxGeometry relative="1" as="geometry">
            <mxPoint x="249" y="761" as="sourcePoint" />
            <mxPoint x="84" y="760.88" as="targetPoint" />
            <Array as="points">
              <mxPoint x="199" y="760.88" />
            </Array>
          </mxGeometry>
        </mxCell>
        <mxCell id="zdOm7Ws3kbpws4WN7t2Z-34" value="18. Finish Write ()" style="verticalAlign=bottom;endArrow=openThin;shadow=0;strokeWidth=1;endFill=0;fontSize=13;" parent="1" edge="1">
          <mxGeometry relative="1" as="geometry">
            <mxPoint x="433" y="746" as="sourcePoint" />
            <mxPoint x="261" y="746" as="targetPoint" />
            <Array as="points">
              <mxPoint x="371" y="746" />
            </Array>
          </mxGeometry>
        </mxCell>
        <mxCell id="zdOm7Ws3kbpws4WN7t2Z-36" value="" style="points=[];perimeter=orthogonalPerimeter;rounded=0;shadow=0;strokeWidth=1;fontSize=13;" parent="1" vertex="1">
          <mxGeometry x="595" y="800" width="10" height="20" as="geometry" />
        </mxCell>
        <mxCell id="zdOm7Ws3kbpws4WN7t2Z-35" value="20. Give the discÂ ()" style="verticalAlign=bottom;endArrow=openThin;shadow=0;strokeWidth=1;exitX=0.9;exitY=0.267;exitDx=0;exitDy=0;exitPerimeter=0;endFill=0;fontSize=13;" parent="1" edge="1">
          <mxGeometry relative="1" as="geometry">
            <mxPoint x="77" y="819.5999999999999" as="sourcePoint" />
            <mxPoint x="595" y="819.5" as="targetPoint" />
            <Array as="points">
              <mxPoint x="188" y="819" />
            </Array>
          </mxGeometry>
        </mxCell>
        <mxCell id="zdOm7Ws3kbpws4WN7t2Z-37" value="4. Error code 2 ()" style="verticalAlign=bottom;endArrow=openThin;shadow=0;strokeWidth=1;exitX=0.1;exitY=0.354;exitDx=0;exitDy=0;exitPerimeter=0;entryX=0.5;entryY=0.231;entryDx=0;entryDy=0;entryPerimeter=0;endFill=0;fontSize=13;" parent="1" edge="1">
          <mxGeometry relative="1" as="geometry">
            <mxPoint x="434" y="340.1199999999999" as="sourcePoint" />
            <mxPoint x="259" y="341.05999999999995" as="targetPoint" />
            <Array as="points">
              <mxPoint x="383" y="341" />
            </Array>
          </mxGeometry>
        </mxCell>
        <mxCell id="zdOm7Ws3kbpws4WN7t2Z-38" value="8. Error code 4 ()" style="verticalAlign=bottom;endArrow=openThin;shadow=0;strokeWidth=1;exitX=0.7;exitY=0.706;exitDx=0;exitDy=0;exitPerimeter=0;endFill=0;fontSize=13;" parent="1" edge="1">
          <mxGeometry relative="1" as="geometry">
            <mxPoint x="440" y="462.05999999999995" as="sourcePoint" />
            <mxPoint x="260" y="462" as="targetPoint" />
            <Array as="points">
              <mxPoint x="375" y="462" />
            </Array>
          </mxGeometry>
        </mxCell>
        <mxCell id="zdOm7Ws3kbpws4WN7t2Z-39" value="9. Disc damage ()" style="verticalAlign=bottom;endArrow=openThin;shadow=0;strokeWidth=1;exitX=0.1;exitY=0.354;exitDx=0;exitDy=0;exitPerimeter=0;entryX=0.5;entryY=0.4;entryDx=0;entryDy=0;entryPerimeter=0;endFill=0;fontSize=13;" parent="1" edge="1">
          <mxGeometry relative="1" as="geometry">
            <mxPoint x="251" y="480.9999999999999" as="sourcePoint" />
            <mxPoint x="85" y="481.88" as="targetPoint" />
            <Array as="points">
              <mxPoint x="200" y="481.88" />
            </Array>
          </mxGeometry>
        </mxCell>
        <mxCell id="zdOm7Ws3kbpws4WN7t2Z-40" value="10. Takes The Disk ()" style="verticalAlign=bottom;endArrow=openThin;shadow=0;strokeWidth=1;exitX=0.9;exitY=0.267;exitDx=0;exitDy=0;exitPerimeter=0;endFill=0;fontSize=13;" parent="1" edge="1">
          <mxGeometry relative="1" as="geometry">
            <mxPoint x="85" y="524.5999999999999" as="sourcePoint" />
            <mxPoint x="251" y="524.5" as="targetPoint" />
            <Array as="points">
              <mxPoint x="196" y="524" />
            </Array>
          </mxGeometry>
        </mxCell>
        <mxCell id="zdOm7Ws3kbpws4WN7t2Z-41" value="" style="points=[];perimeter=orthogonalPerimeter;rounded=0;shadow=0;strokeWidth=1;fontSize=13;" parent="1" vertex="1">
          <mxGeometry x="433" y="457" width="10" height="10" as="geometry" />
        </mxCell>
        <mxCell id="zdOm7Ws3kbpws4WN7t2Z-42" value="" style="points=[];perimeter=orthogonalPerimeter;rounded=0;shadow=0;strokeWidth=1;fontSize=13;" parent="1" vertex="1">
          <mxGeometry x="434" y="550" width="10" height="49" as="geometry" />
        </mxCell>
        <mxCell id="zdOm7Ws3kbpws4WN7t2Z-43" value="11. Input Disk in Drive ()" style="verticalAlign=bottom;endArrow=openThin;shadow=0;strokeWidth=1;endFill=0;fontSize=13;" parent="1" edge="1">
          <mxGeometry relative="1" as="geometry">
            <mxPoint x="261" y="552" as="sourcePoint" />
            <mxPoint x="436" y="552" as="targetPoint" />
          </mxGeometry>
        </mxCell>
        <mxCell id="zdOm7Ws3kbpws4WN7t2Z-44" value="13. Error code 5 ()" style="verticalAlign=bottom;endArrow=openThin;shadow=0;strokeWidth=1;exitX=0.1;exitY=0.354;exitDx=0;exitDy=0;exitPerimeter=0;entryX=0.5;entryY=0.231;entryDx=0;entryDy=0;entryPerimeter=0;endFill=0;fontSize=13;" parent="1" edge="1">
          <mxGeometry relative="1" as="geometry">
            <mxPoint x="434" y="591.9999999999999" as="sourcePoint" />
            <mxPoint x="259" y="592.9399999999999" as="targetPoint" />
            <Array as="points">
              <mxPoint x="383" y="592.88" />
            </Array>
          </mxGeometry>
        </mxCell>
        <mxCell id="zdOm7Ws3kbpws4WN7t2Z-45" value="15. Takes The Disk ()" style="verticalAlign=bottom;endArrow=openThin;shadow=0;strokeWidth=1;exitX=0.9;exitY=0.267;exitDx=0;exitDy=0;exitPerimeter=0;endFill=0;fontSize=13;" parent="1" edge="1">
          <mxGeometry relative="1" as="geometry">
            <mxPoint x="85" y="670.5999999999999" as="sourcePoint" />
            <mxPoint x="251" y="670.5" as="targetPoint" />
            <Array as="points">
              <mxPoint x="196" y="670" />
            </Array>
          </mxGeometry>
        </mxCell>
        <mxCell id="zdOm7Ws3kbpws4WN7t2Z-46" value="" style="points=[];perimeter=orthogonalPerimeter;rounded=0;shadow=0;strokeWidth=1;fontSize=13;" parent="1" vertex="1">
          <mxGeometry x="433" y="690" width="10" height="60" as="geometry" />
        </mxCell>
        <mxCell id="zdOm7Ws3kbpws4WN7t2Z-47" value="16. Input Disk in Drive ()" style="verticalAlign=bottom;endArrow=openThin;shadow=0;strokeWidth=1;endFill=0;fontSize=13;" parent="1" edge="1">
          <mxGeometry relative="1" as="geometry">
            <mxPoint x="260" y="690" as="sourcePoint" />
            <mxPoint x="435" y="690" as="targetPoint" />
          </mxGeometry>
        </mxCell>
        <mxCell id="zdOm7Ws3kbpws4WN7t2Z-48" value="14. Completed with errors ()" style="verticalAlign=bottom;endArrow=openThin;shadow=0;strokeWidth=1;exitX=0.1;exitY=0.354;exitDx=0;exitDy=0;exitPerimeter=0;entryX=0.5;entryY=0.4;entryDx=0;entryDy=0;entryPerimeter=0;endFill=0;fontSize=13;" parent="1" edge="1">
          <mxGeometry relative="1" as="geometry">
            <mxPoint x="251" y="604.9999999999999" as="sourcePoint" />
            <mxPoint x="85" y="605.88" as="targetPoint" />
            <Array as="points">
              <mxPoint x="200" y="605.88" />
            </Array>
          </mxGeometry>
        </mxCell>
        <mxCell id="kKT3arDSLqQZZlfzpvFW-1" value="17. Start Record ()" style="verticalAlign=bottom;endArrow=openThin;shadow=0;strokeWidth=1;exitX=0.9;exitY=0.267;exitDx=0;exitDy=0;exitPerimeter=0;endFill=0;fontSize=13;" edge="1" parent="1">
          <mxGeometry relative="1" as="geometry">
            <mxPoint x="85" y="723.0999999999999" as="sourcePoint" />
            <mxPoint x="251" y="723" as="targetPoint" />
            <Array as="points">
              <mxPoint x="196" y="722.5" />
            </Array>
          </mxGeometry>
        </mxCell>
        <mxCell id="kKT3arDSLqQZZlfzpvFW-2" value="12. Start Record ()" style="verticalAlign=bottom;endArrow=openThin;shadow=0;strokeWidth=1;exitX=0.9;exitY=0.267;exitDx=0;exitDy=0;exitPerimeter=0;endFill=0;fontSize=13;" edge="1" parent="1">
          <mxGeometry relative="1" as="geometry">
            <mxPoint x="89" y="564.5999999999999" as="sourcePoint" />
            <mxPoint x="255" y="564.5" as="targetPoint" />
            <Array as="points">
              <mxPoint x="200" y="564" />
            </Array>
          </mxGeometry>
        </mxCell>
        <mxCell id="kKT3arDSLqQZZlfzpvFW-3" value="7. Start Record ()" style="verticalAlign=bottom;endArrow=openThin;shadow=0;strokeWidth=1;exitX=0.9;exitY=0.267;exitDx=0;exitDy=0;exitPerimeter=0;endFill=0;fontSize=13;" edge="1" parent="1">
          <mxGeometry relative="1" as="geometry">
            <mxPoint x="85" y="442.5999999999999" as="sourcePoint" />
            <mxPoint x="251" y="442.5" as="targetPoint" />
            <Array as="points">
              <mxPoint x="196" y="442" />
            </Array>
          </mxGeometry>
        </mxCell>
      </root>
    </mxGraphModel>
  </diagram>
</mxfile>
